<svg width="496px" height="135px" xmlns="http://www.w3.org/2000/svg"><path d="M99 5h24v100H99V5zM50.5 105.44c-14.15 0-25.94-4.58-35.5-13.75C5.43 82.39.72 70.46.72 55.92c0-14.67 4.84-26.72 14.4-36.15 9.7-9.57 21.49-14.28 35.5-14.28 17.3 0 32.63 7.47 41.53 19.12L76.57 41c-7.47-8-15.6-12.05-24.37-12.05-7.47 0-13.63 2.49-18.73 7.6C28.49 41.65 26 48.07 26 55.8c0 7.47 2.49 13.76 7.47 18.87 5.1 4.97 11.26 7.46 18.6 7.46 9.56 0 17.94-4.19 24.89-12.44L93.2 85.28c-4.45 5.9-10.48 10.74-17.94 14.54-7.47 3.8-15.72 5.63-24.76 5.63v-.01zM134 32h24v73h-24V32zm12-6a13 13 0 1 1 0-26 13 13 0 0 1 0 26zm123 26.2L290.66 32h29.32l-32.02 29.86 33.7 43.14h-27.91l-21.94-28.08-2.81 2.62V105h-24V5h24v47.2zm-64.61 53.37c-11.4 0-20.57-3.53-27.77-10.6-7.08-7.08-10.61-16.12-10.61-27.26 0-11.13 3.53-20.17 10.74-27.24 7.2-7.08 16.5-10.62 28.03-10.62 15.07 0 28.3 7.34 34.46 21.1l-18.48 9.69c-3.66-6.16-8.77-9.3-15.45-9.3-4.85 0-8.78 1.57-11.92 4.71a16.33 16.33 0 0 0-4.59 11.66c0 9.57 6.94 16.64 16.24 16.64 6.69 0 12.84-3.67 15.46-9.3l18.47 11c-6.28 12.06-19.25 19.52-34.58 19.52zM326 67.21V5h25v60.82c0 10.87 6.34 16.11 15.5 16.11 9.03 0 15.5-5.5 15.5-16.11V5h25v62.21c0 28.56-20.05 39.3-40.5 39.3-20.32 0-40.5-10.74-40.5-39.3zM440 99.4V135h-23V32h23v6.6a33.08 33.08 0 0 1 21-7.6c19.33 0 35 17.01 35 38s-15.67 38-35 38a33.08 33.08 0 0 1-21-7.6zM456.5 86c9.11 0 16.5-7.61 16.5-17s-7.39-17-16.5-17S440 59.61 440 69s7.39 17 16.5 17z" fill="#000" fill-rule="nonzero"/></svg>